# xmcd
#
# Track frame offsets:
#	150
#	9728
#	23123
#	35416
#	55140
#	69788
#	84886
#	100198
#	114146
#	125788
#	136580
#	152909
#
# Disc length: 2301 seconds
# Revision: 0
# Processed by: cddbd v1.5.2PL0 Copyright (c) Steve Scherf et al.
# Submitted via: dBpowerAMP V12.0
#
DISCID=8a08fb0c
DTITLE=Jeff Scroggins and Colorado - Ramblin Feels Good
DYEAR=2015
DGENRE=Country
TTITLE0=I'm a Memory
TTITLE1=Sometimes Dig for Taters
TTITLE2=Wall Around Your Heart
TTITLE3=She's Got A Single Thing in Mind
TTITLE4=Carefree Highway
TTITLE5=Ramblin Feels Good
TTITLE6=Dismal Nitch
TTITLE7=Love Please Come Home
TTITLE8=Down the Road of Life
TTITLE9=Galveston
TTITLE10=Night is Fallin in My Heart
TTITLE11=Lemonade in the Shade
EXTD=
EXTT0=
EXTT1=
EXTT2=
EXTT3=
EXTT4=
EXTT5=
EXTT6=
EXTT7=
EXTT8=
EXTT9=
EXTT10=
EXTT11=
PLAYORDER=
